Coordinates
version=1
nRows=7
nColumns=40
inDegrees=yes

Units are S.I. units (second, meters, Newtons, ...)
Angles are in degrees.

endheader
time	pelvis_tilt	pelvis_list	pelvis_rotation	pelvis_tx	pelvis_ty	pelvis_tz	hip_flexion_r	hip_adduction_r	hip_rotation_r	knee_angle_r	knee_angle_r_beta	ankle_angle_r	subtalar_angle_r	mtp_angle_r	hip_flexion_l	hip_adduction_l	hip_rotation_l	knee_angle_l	knee_angle_l_beta	ankle_angle_l	subtalar_angle_l	mtp_angle_l	lumbar_extension	lumbar_bending	lumbar_rotation	arm_flex_r	arm_add_r	arm_rot_r	elbow_flex_r	pro_sup_r	wrist_flex_r	wrist_dev_r	arm_flex_l	arm_add_l	arm_rot_l	elbow_flex_l	pro_sup_l	wrist_flex_l	wrist_dev_l
     22.96000000	     -4.67426011	     -6.39648074	      4.25858588	      1.07446930	      0.92927113	      0.47800565	     15.00337173	      3.99913697	    -19.46451203	     15.98117100	     15.98117100	      9.14275740	      5.89695264	     -3.36659589	     29.40721846	    -15.16149602	     -1.18021359	     56.87894876	     56.87894876	     11.35481326	    -17.74069529	     10.40591626	    -12.70426869	      6.64221472	      4.70334316	     20.40242200	    -16.85187670	      4.13137856	     40.44305266	     45.23719621	      0.00000000	      0.00000000	      1.33860948	     -8.20917761	     -2.67659952	     65.76339645	     45.97710914	      0.00000000	      0.00000000
     22.97142857	     -4.69692136	     -6.29501856	      4.52916890	      1.07297903	      0.92934108	      0.47797136	     14.39484339	      3.98976521	    -19.44235466	     15.69785316	     15.69785316	      9.50342707	      5.73428837	     -3.51134789	     30.70223024	    -14.80273956	     -0.84033785	     54.59462652	     54.59462652	     11.38147792	    -17.77937974	     10.59195195	    -12.83926613	      6.46080520	      4.37359311	     23.08651206	    -16.74109876	      4.08838785	     41.80534709	     45.21012167	      0.00000000	      0.00000000	     -0.21690389	     -8.33708314	     -2.55906075	     63.34595497	     45.94208298	      0.00000000	      0.00000000
     22.98285714	     -4.72173761	     -6.28975928	      4.77028210	      1.07150169	      0.92924070	      0.47800079	     13.85062172	      4.12202508	    -19.19165403	     15.46849305	     15.46849305	      9.72883021	      5.09836977	     -3.96171148	     31.77964329	    -14.52796582	     -0.51194478	     51.97422040	     51.97422040	     11.10942802	    -17.72630550	     10.26375916	    -12.90836747	      6.42505574	      4.55764585	     25.56971070	    -17.19471459	      4.84953725	     43.08634656	     45.15962360	      0.00000000	      0.00000000	     -0.53863838	     -7.73298064	     -3.37863439	     58.28335422	     46.00682767	      0.00000000	      0.00000000
     22.99428571	     -4.67635318	     -6.20264832	      5.01342282	      1.07007059	      0.92919309	      0.47789825	     13.24570198	      4.14176125	    -19.00813260	     15.30148446	     15.30148446	     10.09244594	      4.65401449	     -4.12238840	     32.54988043	    -14.09026545	     -0.16837043	     49.08900495	     49.08900495	     10.90434324	    -17.62400989	     10.59864155	    -13.17527768	      6.28078363	      4.33708774	     28.17510454	    -17.16817580	      4.83634337	     44.63043317	     45.12389523	      0.00000000	      0.00000000	     -1.94091003	     -7.80481990	     -3.37187863	     56.08580538	     45.98348236	      0.00000000	      0.00000000
     23.00571429	     -4.71585496	     -6.23420197	      5.28789229	      1.06863306	      0.92883928	      0.47774458	     12.75474384	      4.30287844	    -18.72734712	     15.11732535	     15.11732535	     10.37018964	      3.90664768	     -4.42185036	     33.36120473	    -13.71031615	      0.29204622	     46.13723975	     46.13723975	     10.54754062	    -17.31968869	     10.78266615	    -13.26508985	      6.30043397	      4.13988917	     30.64140584	    -17.26340359	      5.19494478	     46.34412965	     45.06886066	      0.00000000	      0.00000000	     -2.67081007	     -7.58606166	     -3.77404905	     52.17368562	     45.99375291	      0.00000000	      0.00000000
     23.01714286	     -4.76559533	     -6.22199777	      5.50285972	      1.06727138	      0.92844764	      0.47750001	     12.28261602	      4.41846372	    -18.35247477	     14.94584257	     14.94584257	     10.53644745	      3.10234375	     -5.01225955	     33.96972602	    -13.26338762	      0.71522361	     42.98575101	     42.98575101	     10.09941054	    -16.80215033	     10.65100221	    -13.32539322	      6.25760849	      4.61784382	     32.54460460	    -18.03383575	      5.96461185	     48.40298943	     44.99423905	      0.00000000	      0.00000000	     -2.52446705	     -6.99537299	     -4.84325094	     47.17917259	     46.08558653	      0.00000000	      0.00000000
     23.02857143	     -4.75462541	     -6.19553641	      5.74340659	      1.06598811	      0.92805240	      0.47715684	     11.78406401	      4.47033867	    -18.17384447	     14.89999372	     14.89999372	     10.90181768	      2.61890848	     -5.20209889	     34.43724864	    -12.77041877	      1.18678010	     39.83922897	     39.83922897	      9.84165653	    -15.92188434	     10.98767278	    -13.51260457	      6.15141456	      4.40499611	     34.82275585	    -17.94633150	      5.89162468	     50.13547423	     44.95451407	      0.00000000	      0.00000000	     -3.79601846	     -7.10165114	     -4.96448786	     45.34129230	     46.07583281	      0.00000000	      0.00000000
